<svg width="44" height="44" viewBox="0 0 44 44" fill="none" xmlns="http://www.w3.org/2000/svg">
<g clip-path="url(#clip0_861_1333)">
<path d="M33.9299 31.2384C36.1168 28.8328 37.5923 23.9151 37.4032 20.7776C37.2141 17.6401 36.013 14.6351 33.9644 12.1746C31.9158 9.71403 29.12 7.91826 25.9601 7.03339C22.8003 6.14851 19.431 6.21783 16.3141 7.23184C13.1971 8.24585 10.485 10.1549 8.54946 12.6975C6.61388 15.24 5.54954 18.2915 5.50229 21.4339C5.45505 24.5763 6.12971 27.354 8.28557 30.2502C9.42617 31.7825 10.3288 32.6604 11.7691 33.7169C13.2635 34.7011 14.5368 35.3601 16.4717 35.9768C22.267 37.8237 26.6766 35.7945 26.6766 35.7945L23.4327 32.5506L20.9805 30.1037C20.9805 30.1037 19.0696 29.5918 17.2729 28.5462C16.2049 27.9246 15.1772 26.9731 14.6152 26.2161C13.4727 24.6775 12.9638 23.4527 12.992 21.5365C13.0204 19.6187 13.5821 18.2487 14.6095 16.8992C15.6369 15.5496 17.0765 14.5362 18.731 13.998C20.3854 13.4598 22.1738 13.423 23.8511 13.8927C25.5283 14.3624 27.0123 15.3156 28.0997 16.6216C29.1871 17.9277 29.8247 19.5227 29.9251 21.1881C30.0254 22.8535 29.3859 24.3183 28.4626 25.7347L33.9299 31.2384Z" fill="url(#paint0_linear_861_1333)"/>
<path d="M15.7793 23.5466C15.7793 23.5466 22.6157 22.7687 24.9346 23.6698C27.2534 24.571 37.8853 36.6206 37.8853 36.6206C37.8853 36.6206 30.5958 36.897 28.6282 36.3169C26.6606 35.7368 15.7793 23.5466 15.7793 23.5466Z" fill="url(#paint1_linear_861_1333)"/>
</g>
<defs>
<linearGradient id="paint0_linear_861_1333" x1="61.4485" y1="17.5338" x2="-4.12241" y2="43.0478" gradientUnits="userSpaceOnUse">
<stop offset="0.120192" stop-color="#5B23BD"/>
<stop offset="0.3257" stop-color="#831EF5"/>
<stop offset="0.598738" stop-color="#34A6F2"/>
<stop offset="1" stop-color="#42D6F9"/>
</linearGradient>
<linearGradient id="paint1_linear_861_1333" x1="18.0551" y1="21.2709" x2="35.645" y2="38.8608" gradientUnits="userSpaceOnUse">
<stop stop-color="#A19FFA"/>
<stop offset="1" stop-color="#8218F5"/>
</linearGradient>
<clipPath id="clip0_861_1333">
<rect width="32.2667" height="30.8" fill="white" transform="translate(5.5 6.41699)"/>
</clipPath>
</defs>
</svg>
